<svg width="18" height="18" viewBox="0 0 18 18" fill="none" xmlns="http://www.w3.org/2000/svg">
<path opacity="0.35" d="M17.011 0.988988C15.693 -0.329012 13.556 -0.329012 12.238 0.988988L1.20801 11.998C0.906014 12.3 0.705014 12.687 0.632014 13.108L0.0170136 16.675C-0.115986 17.447 0.555014 18.117 1.32701 17.983L4.85201 17.37C5.27001 17.297 5.65601 17.097 5.95601 16.797L17.011 5.76099C18.33 4.44299 18.33 2.30699 17.011 0.988988Z" fill="black"/>
<path d="M10.075 3.14399L14.848 7.91699L16.832 5.93999L12.059 1.16699L10.075 3.14399Z" fill="black"/>
<path d="M0.392014 14.5L0.0170136 16.675C-0.115986 17.447 0.555014 18.117 1.32701 17.983L3.49801 17.605L0.392014 14.5Z" fill="black"/>
</svg>
